<?xml version="1.0" encoding="UTF-8"?>
<svg id="Layer_1" data-name="Layer 1" xmlns="http://www.w3.org/2000/svg" viewBox="0 0 1001 250.11">
  <defs>
    <style>
      .cls-1 {
        fill: #163830;
        stroke-width: 0px;
      }
    </style>
  </defs>
  <g>
    <path class="cls-1" d="M.5,248.61L18.35,100.85h62.57l17.63,147.75h-35.05l-2.58-23.91h-22.36l-2.15,23.91H.5ZM41.35,201.13h16.77l-8.17-75.17h-1.72l-6.88,75.17Z"/>
    <path class="cls-1" d="M131.22,248.61V100.85h36.98v122.64h38.06v25.11h-75.04Z"/>
    <path class="cls-1" d="M248.73,239.83c-8.1-6.77-12.15-16.05-12.15-27.87v-68.12c0-14.68,3.66-25.74,10.97-33.2,7.31-7.45,18.78-11.18,34.4-11.18,13.62,0,24.58,2.98,32.9,8.94,8.31,5.96,12.47,14.56,12.47,25.8v25.46h-36.77v-21.85c0-4.24-.65-7.16-1.94-8.77-1.29-1.6-3.51-2.41-6.67-2.41s-5.56.92-6.77,2.75c-1.22,1.84-1.83,4.53-1.83,8.08v74.13c0,3.9.72,6.74,2.15,8.51,1.43,1.78,3.58,2.67,6.45,2.67,5.73,0,8.6-3.73,8.6-11.18v-26.66h37.2v27.87c0,24.77-15.55,37.15-46.66,37.15-13.47,0-24.26-3.38-32.36-10.15Z"/>
    <path class="cls-1" d="M371.6,239.06c-7.74-7.28-11.61-17.51-11.61-30.7v-70.35c0-12.73,3.87-22.33,11.61-28.81,7.74-6.48,19.06-9.72,33.97-9.72s26.23,3.24,33.97,9.72c7.74,6.48,11.61,16.08,11.61,28.81v70.35c0,13.3-3.87,23.57-11.61,30.79-7.74,7.22-19.07,10.84-33.97,10.84s-26.23-3.64-33.97-10.92ZM412.24,219.37c1.15-2.29,1.72-5.5,1.72-9.63v-72.24c0-3.21-.54-5.82-1.61-7.83-1.08-2-3.26-3.01-6.56-3.01-6.16,0-9.25,3.73-9.25,11.18v72.07c0,4.24.65,7.45,1.94,9.63,1.29,2.18,3.66,3.27,7.1,3.27s5.52-1.15,6.67-3.44Z"/>
    <path class="cls-1" d="M487.49,248.61V100.85h36.77v52.81h17.42v-52.81h36.77v147.75h-36.77v-67.08h-17.42v67.08h-36.77Z"/>
    <path class="cls-1" d="M626.39,239.06c-7.74-7.28-11.61-17.51-11.61-30.7v-70.35c0-12.73,3.87-22.33,11.61-28.81,7.74-6.48,19.06-9.72,33.97-9.72s26.23,3.24,33.97,9.72c7.74,6.48,11.61,16.08,11.61,28.81v70.35c0,13.3-3.87,23.57-11.61,30.79-7.74,7.22-19.07,10.84-33.97,10.84s-26.23-3.64-33.97-10.92ZM667.02,219.37c1.15-2.29,1.72-5.5,1.72-9.63v-72.24c0-3.21-.54-5.82-1.61-7.83-1.08-2-3.26-3.01-6.56-3.01-6.16,0-9.25,3.73-9.25,11.18v72.07c0,4.24.65,7.45,1.94,9.63,1.29,2.18,3.66,3.27,7.1,3.27s5.52-1.15,6.67-3.44Z"/>
    <path class="cls-1" d="M742.28,248.61V100.85h56.33l15.48,90.13,15.48-90.13h56.76v147.75h-33.76v-106.47l-21.29,106.47h-33.11l-22.58-106.47v106.47h-33.33Z"/>
    <path class="cls-1" d="M924.17,248.61V100.85h73.96v28.55h-36.34v28.73h34.83v27.86h-34.83v33.89h38.7v28.73h-76.33Z"/>
  </g>
  <circle class="cls-1" cx="472.15" cy="50.84" r="16.9"/>
  <circle class="cls-1" cx="532.97" cy="17.03" r="16.9"/>
  <circle class="cls-1" cx="593.22" cy="50.84" r="16.9"/>
</svg>