<?xml version="1.0" encoding="UTF-8"?>
<svg version="1.1" xmlns="http://www.w3.org/2000/svg" width="133" height="121">
<path d="M0 0 C1.27423828 -0.00193359 1.27423828 -0.00193359 2.57421875 -0.00390625 C3.46753906 -0.00003906 4.36085938 0.00382812 5.28125 0.0078125 C6.17457031 0.00394531 7.06789063 0.00007813 7.98828125 -0.00390625 C8.83777344 -0.00261719 9.68726562 -0.00132813 10.5625 0 C11.34689453 0.00112793 12.13128906 0.00225586 12.93945312 0.00341797 C14.78125 0.1328125 14.78125 0.1328125 15.78125 1.1328125 C15.8796221 2.46324875 15.91203592 3.79874594 15.9140625 5.1328125 C15.91535156 5.9371875 15.91664062 6.7415625 15.91796875 7.5703125 C15.91410156 8.4159375 15.91023438 9.2615625 15.90625 10.1328125 C15.91011719 10.9784375 15.91398437 11.8240625 15.91796875 12.6953125 C15.91667969 13.4996875 15.91539063 14.3040625 15.9140625 15.1328125 C15.91293457 15.8753125 15.91180664 16.6178125 15.91064453 17.3828125 C15.78125 19.1328125 15.78125 19.1328125 14.78125 20.1328125 C13.36554877 20.21932861 11.945655 20.23986154 10.52734375 20.23046875 C9.67333984 20.22724609 8.81933594 20.22402344 7.93945312 20.22070312 C6.59270508 20.20813477 6.59270508 20.20813477 5.21875 20.1953125 C4.31705078 20.19080078 3.41535156 20.18628906 2.48632812 20.18164062 C0.25123686 20.16981475 -1.98372437 20.1533347 -4.21875 20.1328125 C-4.71375 18.6478125 -4.71375 18.6478125 -5.21875 17.1328125 C-5.74048798 17.33326172 -6.26222595 17.53371094 -6.79977417 17.74023438 C-12.21606488 19.82040133 -17.63411441 21.89593449 -23.05322266 23.96875 C-25.07711826 24.74359617 -27.10055788 25.51963442 -29.12353516 26.296875 C-32.02648606 27.41197226 -34.93103414 28.52281313 -37.8359375 29.6328125 C-38.74431366 29.98279297 -39.65268982 30.33277344 -40.58859253 30.69335938 C-41.42931305 31.01369141 -42.27003357 31.33402344 -43.13623047 31.6640625 C-43.87791473 31.94830078 -44.619599 32.23253906 -45.38375854 32.52539062 C-47.21875 33.1328125 -47.21875 33.1328125 -49.21875 33.1328125 C-48.88875 34.1228125 -48.55875 35.1128125 -48.21875 36.1328125 C-45.8712792 36.99268725 -43.67166254 37.63622407 -41.25219727 38.2175293 C-40.52374603 38.40328522 -39.7952948 38.58904114 -39.04476929 38.78042603 C-36.62784103 39.39338597 -34.20674965 39.98779372 -31.78515625 40.58203125 C-30.10959254 41.00267143 -28.43429725 41.42438218 -26.75926208 41.84712219 C-22.34217695 42.95849222 -17.92127255 44.05389002 -13.49951172 45.14648438 C-9.88689918 46.04201254 -6.27718051 46.94888017 -2.66755772 47.85637188 C1.62560984 48.93546094 5.92004488 50.00945548 10.21484375 51.08203125 C11.03846342 51.28787024 11.86208309 51.49370922 12.71066093 51.70578575 C15.03487214 52.2853578 17.3599107 52.86146581 19.68530273 53.4362793 C20.37784653 53.60923019 21.07039032 53.78218109 21.78392029 53.96037292 C25.24189041 54.83713874 25.24189041 54.83713874 28.78125 55.1328125 C29.44125 53.4828125 30.10125 51.8328125 30.78125 50.1328125 C33.92706423 50.10392736 37.07284469 50.08605327 40.21875 50.0703125 C41.56549805 50.05774414 41.56549805 50.05774414 42.93945312 50.04492188 C43.79345703 50.04169922 44.64746094 50.03847656 45.52734375 50.03515625 C46.31810303 50.02991943 47.1088623 50.02468262 47.92358398 50.01928711 C49.78125 50.1328125 49.78125 50.1328125 50.78125 51.1328125 C50.87985131 52.53629985 50.91203937 53.94461727 50.9140625 55.3515625 C50.91535156 56.20105469 50.91664062 57.05054688 50.91796875 57.92578125 C50.91410156 58.81910156 50.91023438 59.71242187 50.90625 60.6328125 C50.91011719 61.52613281 50.91398437 62.41945312 50.91796875 63.33984375 C50.91667969 64.18933594 50.91539063 65.03882812 50.9140625 65.9140625 C50.91293457 66.69845703 50.91180664 67.48285156 50.91064453 68.29101562 C50.78125 70.1328125 50.78125 70.1328125 49.78125 71.1328125 C48.67007813 71.08640625 47.55890625 71.04 46.4140625 70.9921875 C33.0508197 70.50151539 25.48924324 75.22950678 15.17333984 83.28369141 C11.9895495 85.74480878 8.71618162 88.06906831 5.4375 90.40136719 C2.54466796 92.46130467 -0.33374716 94.53820839 -3.1809082 96.66088867 C-4.58111887 97.67225444 -6.01798293 98.63415501 -7.48120117 99.55200195 C-11.5323936 102.10860258 -11.5323936 102.10860258 -13.92407227 106.08813477 C-14.1914188 108.24677571 -14.22940989 110.27226593 -14.15625 112.4453125 C-14.19016904 120.10423154 -14.19016904 120.10423154 -15.21875 121.1328125 C-16.62223735 121.23141381 -18.03055477 121.26360187 -19.4375 121.265625 C-20.71173828 121.26755859 -20.71173828 121.26755859 -22.01171875 121.26953125 C-22.90503906 121.26566406 -23.79835937 121.26179688 -24.71875 121.2578125 C-25.61207031 121.26167969 -26.50539062 121.26554687 -27.42578125 121.26953125 C-28.27527344 121.26824219 -29.12476563 121.26695313 -30 121.265625 C-30.78439453 121.26449707 -31.56878906 121.26336914 -32.37695312 121.26220703 C-34.21875 121.1328125 -34.21875 121.1328125 -35.21875 120.1328125 C-35.31735131 118.72932515 -35.34953937 117.32100773 -35.3515625 115.9140625 C-35.35285156 115.06457031 -35.35414062 114.21507813 -35.35546875 113.33984375 C-35.35160156 112.44652344 -35.34773438 111.55320312 -35.34375 110.6328125 C-35.34955078 109.29283203 -35.34955078 109.29283203 -35.35546875 107.92578125 C-35.35417969 107.07628906 -35.35289063 106.22679688 -35.3515625 105.3515625 C-35.35043457 104.56716797 -35.34930664 103.78277344 -35.34814453 102.97460938 C-35.21875 101.1328125 -35.21875 101.1328125 -34.21875 100.1328125 C-33.24035156 100.17921875 -32.26195312 100.225625 -31.25390625 100.2734375 C-18.63742542 100.6207939 -12.00067084 95.59769768 -2.42822266 87.87402344 C0.9621185 85.20220984 4.51622011 82.79469857 8.09375 80.3828125 C9.39218263 79.49256011 10.69036438 78.60194167 11.98828125 77.7109375 C14.53534469 75.97224709 17.09661927 74.25722367 19.66796875 72.5546875 C20.27793701 72.14573242 20.88790527 71.73677734 21.51635742 71.31542969 C23.17268341 70.20556068 24.83610713 69.10630488 26.5 68.0078125 C27.2528125 67.3890625 28.005625 66.7703125 28.78125 66.1328125 C28.78125 65.1428125 28.78125 64.1528125 28.78125 63.1328125 C14.66984817 59.11235009 0.47518627 55.4412693 -13.74560547 51.82910156 C-17.50443008 50.87374391 -21.26200932 49.91359188 -25.01953125 48.953125 C-27.42440626 48.34085939 -29.82935161 47.72886999 -32.234375 47.1171875 C-33.90780975 46.68910797 -33.90780975 46.68910797 -35.61505127 46.25238037 C-36.65764099 45.98830383 -37.70023071 45.72422729 -38.77441406 45.45214844 C-39.6838678 45.22074158 -40.59332153 44.98933472 -41.53033447 44.75091553 C-44.41230887 44.0883107 -47.29795404 43.59133799 -50.21875 43.1328125 C-50.54875 44.1228125 -50.87875 45.1128125 -51.21875 46.1328125 C-54.19797593 46.15965237 -57.17696295 46.17957287 -60.15625 46.1953125 C-61.00638672 46.20369141 -61.85652344 46.21207031 -62.73242188 46.22070312 C-63.54130859 46.22392578 -64.35019531 46.22714844 -65.18359375 46.23046875 C-65.9324585 46.23570557 -66.68132324 46.24094238 -67.45288086 46.24633789 C-69.21875 46.1328125 -69.21875 46.1328125 -70.21875 45.1328125 C-70.31735131 43.72932515 -70.34953937 42.32100773 -70.3515625 40.9140625 C-70.35285156 40.06457031 -70.35414062 39.21507812 -70.35546875 38.33984375 C-70.35160156 37.44652344 -70.34773438 36.55320313 -70.34375 35.6328125 C-70.34761719 34.73949219 -70.35148437 33.84617188 -70.35546875 32.92578125 C-70.35417969 32.07628906 -70.35289063 31.22679688 -70.3515625 30.3515625 C-70.35043457 29.56716797 -70.34930664 28.78277344 -70.34814453 27.97460938 C-70.21875 26.1328125 -70.21875 26.1328125 -69.21875 25.1328125 C-66.27166431 25.03231008 -63.35311198 24.99411678 -60.40625 25.0078125 C-59.17551758 25.00201172 -59.17551758 25.00201172 -57.91992188 24.99609375 C-56.72786133 24.99802734 -56.72786133 24.99802734 -55.51171875 25 C-54.42153442 25.00169189 -54.42153442 25.00169189 -53.30932617 25.00341797 C-51.21875 25.1328125 -51.21875 25.1328125 -49.35169983 25.7256012 C-46.7255753 26.22696676 -45.47092313 25.76099254 -43.00097656 24.77758789 C-42.18042786 24.45718033 -41.35987915 24.13677277 -40.51446533 23.80665588 C-39.63828552 23.45151413 -38.76210571 23.09637238 -37.859375 22.73046875 C-36.95499695 22.37391708 -36.0506189 22.01736542 -35.11883545 21.65000916 C-32.23123824 20.50880671 -29.35005473 19.35229818 -26.46875 18.1953125 C-24.51212154 17.41890602 -22.55509464 16.64350286 -20.59765625 15.86914062 C-15.79998646 13.96864263 -11.00801182 12.05439479 -6.21875 10.1328125 C-6.15816406 9.49472656 -6.09757812 8.85664063 -6.03515625 8.19921875 C-5.90947266 6.95978516 -5.90947266 6.95978516 -5.78125 5.6953125 C-5.65943359 4.45974609 -5.65943359 4.45974609 -5.53515625 3.19921875 C-4.96794972 -0.50513004 -3.3833821 0.00486518 0 0 Z M0.78125 6.1328125 C0.62071185 8.00603198 0.62071185 8.00603198 0.65625 10.1328125 C0.65367188 10.8546875 0.65109375 11.5765625 0.6484375 12.3203125 C0.58429724 14.15370665 0.58429724 14.15370665 1.78125 15.1328125 C5.28125 15.29947917 5.28125 15.29947917 8.78125 15.1328125 C9.97820276 14.15370665 9.97820276 14.15370665 9.9140625 12.3203125 C9.91148438 11.5984375 9.90890625 10.8765625 9.90625 10.1328125 C9.90882812 9.4109375 9.91140625 8.6890625 9.9140625 7.9453125 C9.97820276 6.11191835 9.97820276 6.11191835 8.78125 5.1328125 C4.4649975 4.59015137 4.4649975 4.59015137 0.78125 6.1328125 Z M-65.21875 32.1328125 C-65.38541667 35.6328125 -65.38541667 35.6328125 -65.21875 39.1328125 C-64.23964415 40.32976526 -64.23964415 40.32976526 -62.40625 40.265625 C-61.684375 40.26304688 -60.9625 40.26046875 -60.21875 40.2578125 C-59.496875 40.26039062 -58.775 40.26296875 -58.03125 40.265625 C-56.19785585 40.32976526 -56.19785585 40.32976526 -55.21875 39.1328125 C-55.05208333 35.6328125 -55.05208333 35.6328125 -55.21875 32.1328125 C-56.19785585 30.93585974 -56.19785585 30.93585974 -58.03125 31 C-58.753125 31.00257812 -59.475 31.00515625 -60.21875 31.0078125 C-60.940625 31.00523438 -61.6625 31.00265625 -62.40625 31 C-64.23964415 30.93585974 -64.23964415 30.93585974 -65.21875 32.1328125 Z M35.78125 57.1328125 C35.61458333 60.6328125 35.61458333 60.6328125 35.78125 64.1328125 C36.95843985 65.53714186 36.95843985 65.53714186 40.28125 65.2578125 C43.60406015 65.53714186 43.60406015 65.53714186 44.78125 64.1328125 C44.94791667 60.6328125 44.94791667 60.6328125 44.78125 57.1328125 C43.60406015 55.72848314 43.60406015 55.72848314 40.28125 56.0078125 C36.95843985 55.72848314 36.95843985 55.72848314 35.78125 57.1328125 Z M-29.21875 107.1328125 C-29.38541667 110.6328125 -29.38541667 110.6328125 -29.21875 114.1328125 C-28.04156015 115.53714186 -28.04156015 115.53714186 -24.71875 115.2578125 C-21.39593985 115.53714186 -21.39593985 115.53714186 -20.21875 114.1328125 C-20.05208333 110.6328125 -20.05208333 110.6328125 -20.21875 107.1328125 C-21.39593985 105.72848314 -21.39593985 105.72848314 -24.71875 106.0078125 C-28.04156015 105.72848314 -28.04156015 105.72848314 -29.21875 107.1328125 Z " fill="#E5CAFE" transform="translate(70.21875,-0.1328125)"/>
<path d="M0 0 C5.03539273 -0.16603296 9.31538425 0.36635964 14.19140625 1.609375 C14.85857162 1.77745667 15.525737 1.94553833 16.21311951 2.11871338 C18.33162947 2.65476043 20.44695205 3.2023951 22.5625 3.75 C23.95359588 4.10227472 25.34487101 4.45384235 26.73632812 4.8046875 C37.59796946 7.56245937 37.59796946 7.56245937 42.90185547 9.15820312 C44.1188916 9.52365234 45.33592773 9.88910156 46.58984375 10.265625 C47.65968506 10.59852539 48.72952637 10.93142578 49.83178711 11.27441406 C53.31024697 12.07105294 56.44320497 12.12439677 60 12 C60.66 10.35 61.32 8.7 62 7 C64.81256281 6.97315688 67.62487241 6.95323812 70.4375 6.9375 C71.23994141 6.92912109 72.04238281 6.92074219 72.86914062 6.91210938 C74.91295221 6.9034857 76.95683902 6.9477185 79 7 C80.8855253 8.8855253 80.13246689 11.57768831 80.13671875 14.08203125 C80.13285156 14.87996094 80.12898438 15.67789063 80.125 16.5 C80.12886719 17.29792969 80.13273437 18.09585938 80.13671875 18.91796875 C80.12660767 24.87339233 80.12660767 24.87339233 79 26 C77.88882813 25.95359375 76.77765625 25.9071875 75.6328125 25.859375 C62.2695697 25.36870289 54.70799324 30.09669428 44.39208984 38.15087891 C41.2082995 40.61199628 37.93493162 42.93625581 34.65625 45.26855469 C31.76341796 47.32849217 28.88500284 49.40539589 26.0378418 51.52807617 C24.63763113 52.53944194 23.20076707 53.50134251 21.73754883 54.41918945 C17.6863564 56.97579008 17.6863564 56.97579008 15.29467773 60.95532227 C15.0273312 63.11396321 14.98934011 65.13945343 15.0625 67.3125 C15.02858096 74.97141904 15.02858096 74.97141904 14 76 C11.15664952 76.09986975 8.34302837 76.13877881 5.5 76.125 C4.70207031 76.12886719 3.90414062 76.13273437 3.08203125 76.13671875 C-2.87339233 76.12660767 -2.87339233 76.12660767 -4 75 C-4.09986975 72.15664952 -4.13877881 69.34302837 -4.125 66.5 C-4.12886719 65.70207031 -4.13273437 64.90414062 -4.13671875 64.08203125 C-4.12660767 58.12660767 -4.12660767 58.12660767 -3 57 C-2.02160156 57.04640625 -1.04320312 57.0928125 -0.03515625 57.140625 C12.58132458 57.4879814 19.21807916 52.46488518 28.79052734 44.74121094 C32.18095638 42.06932808 35.73557874 39.66291649 39.3125 37.25 C40.61200363 36.35420216 41.91148325 35.45836948 43.2109375 34.5625 C45.72705885 32.8427835 48.27174443 31.1849277 50.8515625 29.5625 C51.45701904 29.1715918 52.06247559 28.78068359 52.6862793 28.37792969 C54.32125828 27.32486919 55.97069009 26.29434286 57.62109375 25.265625 C60.71381465 22.32017653 60.80328117 20.17649218 61 16 C59.9275 15.896875 58.855 15.79375 57.75 15.6875 C53.01583362 15.10832007 48.50193457 13.89295898 43.89453125 12.6875 C41.45937837 12.10911011 39.17249278 11.73161098 36.6875 11.5 C33 11 33 11 30.0390625 9.66015625 C23.80184065 6.88492804 16.98600605 5.70734533 10.36523438 4.16210938 C9.32044922 3.91138672 8.27566406 3.66066406 7.19921875 3.40234375 C5.77355591 3.06964478 5.77355591 3.06964478 4.3190918 2.73022461 C2 2 2 2 0 0 Z M66 13 C65.83333333 16.5 65.83333333 16.5 66 20 C67.17718985 21.40432936 67.17718985 21.40432936 70.5 21.125 C73.82281015 21.40432936 73.82281015 21.40432936 75 20 C75.16666667 16.5 75.16666667 16.5 75 13 C73.82281015 11.59567064 73.82281015 11.59567064 70.5 11.875 C67.17718985 11.59567064 67.17718985 11.59567064 66 13 Z M1 63 C0.83333333 66.5 0.83333333 66.5 1 70 C2.17718985 71.40432936 2.17718985 71.40432936 5.5 71.125 C8.82281015 71.40432936 8.82281015 71.40432936 10 70 C10.16666667 66.5 10.16666667 66.5 10 63 C8.82281015 61.59567064 8.82281015 61.59567064 5.5 61.875 C2.17718985 61.59567064 2.17718985 61.59567064 1 63 Z " fill="#B285FE" transform="translate(40,44)"/>
<path d="M0 0 C7.70149535 0.68483393 15.02505209 2.66221654 22.4921875 4.59765625 C23.88831092 4.95544685 25.28456364 5.31273327 26.68093872 5.66954041 C30.33408187 6.6041004 33.98580684 7.54407617 37.637146 8.48565674 C43.50145037 9.99727656 49.36749417 11.50209828 55.23428726 13.00402641 C57.28120714 13.52913272 59.32726701 14.05749421 61.3732605 14.5861969 C63.22626266 15.06185341 63.22626266 15.06185341 65.11669922 15.54711914 C66.20731659 15.82834122 67.29793396 16.10956329 68.42160034 16.39930725 C70.88339854 17.07563169 70.88339854 17.07563169 73 17 C73.66 15.35 74.32 13.7 75 12 C78.14581423 11.97111486 81.29159469 11.95324077 84.4375 11.9375 C85.78424805 11.92493164 85.78424805 11.92493164 87.15820312 11.91210938 C88.01220703 11.90888672 88.86621094 11.90566406 89.74609375 11.90234375 C90.53685303 11.89710693 91.3276123 11.89187012 92.14233398 11.88647461 C94 12 94 12 95 13 C95.09860131 14.40348735 95.13078937 15.81180477 95.1328125 17.21875 C95.13410156 18.06824219 95.13539062 18.91773437 95.13671875 19.79296875 C95.13285156 20.68628906 95.12898438 21.57960938 95.125 22.5 C95.12886719 23.39332031 95.13273437 24.28664063 95.13671875 25.20703125 C95.13542969 26.05652344 95.13414063 26.90601562 95.1328125 27.78125 C95.13168457 28.56564453 95.13055664 29.35003906 95.12939453 30.15820312 C95 32 95 32 94 33 C92.88882813 32.95359375 91.77765625 32.9071875 90.6328125 32.859375 C77.2695697 32.36870289 69.70799324 37.09669428 59.39208984 45.15087891 C56.2082995 47.61199628 52.93493162 49.93625581 49.65625 52.26855469 C46.76341796 54.32849217 43.88500284 56.40539589 41.0378418 58.52807617 C39.63763113 59.53944194 38.20076707 60.50134251 36.73754883 61.41918945 C32.6863564 63.97579008 32.6863564 63.97579008 30.29467773 67.95532227 C30.0273312 70.11396321 29.98934011 72.13945343 30.0625 74.3125 C30.02858096 81.97141904 30.02858096 81.97141904 29 83 C27.59651265 83.09860131 26.18819523 83.13078937 24.78125 83.1328125 C23.50701172 83.13474609 23.50701172 83.13474609 22.20703125 83.13671875 C21.31371094 83.13285156 20.42039062 83.12898438 19.5 83.125 C18.60667969 83.12886719 17.71335937 83.13273437 16.79296875 83.13671875 C15.94347656 83.13542969 15.09398437 83.13414063 14.21875 83.1328125 C13.43435547 83.13168457 12.64996094 83.13055664 11.84179688 83.12939453 C10 83 10 83 9 82 C8.90139869 80.59651265 8.86921063 79.18819523 8.8671875 77.78125 C8.86589844 76.93175781 8.86460938 76.08226563 8.86328125 75.20703125 C8.86714844 74.31371094 8.87101562 73.42039062 8.875 72.5 C8.87113281 71.60667969 8.86726563 70.71335937 8.86328125 69.79296875 C8.86457031 68.94347656 8.86585937 68.09398438 8.8671875 67.21875 C8.86831543 66.43435547 8.86944336 65.64996094 8.87060547 64.84179688 C9 63 9 63 10 62 C10.97839844 62.04640625 11.95679688 62.0928125 12.96484375 62.140625 C25.58132458 62.4879814 32.21807916 57.46488518 41.79052734 49.74121094 C45.1808685 47.06939734 48.73497011 44.66188607 52.3125 42.25 C53.61093263 41.35974761 54.90911438 40.46912917 56.20703125 39.578125 C58.75409469 37.83943459 61.31536927 36.12441117 63.88671875 34.421875 C64.49668701 34.01291992 65.10665527 33.60396484 65.73510742 33.18261719 C67.39143341 32.07274818 69.05485713 30.97349238 70.71875 29.875 C71.4715625 29.25625 72.224375 28.6375 73 28 C73 27.01 73 26.02 73 25 C57.53720065 20.58628907 41.96272876 16.63290401 26.375 12.6875 C23.80724476 12.03599212 21.23953608 11.38430072 18.671875 10.73242188 C12.44845106 9.15283477 6.22445916 7.57550254 0 6 C0 5.67 0 5.34 0 5 C3.96 5 7.92 5 12 5 C9.586875 4.319375 9.586875 4.319375 7.125 3.625 C2.25 2.25 2.25 2.25 0 0 Z M14 6 C16.60363344 8.60363344 18.63818928 8.81154164 22.21484375 9.65625 C23.45814453 9.95660156 24.70144531 10.25695312 25.98242188 10.56640625 C27.30061193 10.87832062 28.61897351 11.18951089 29.9375 11.5 C32.51091155 12.10763306 35.08190967 12.7234381 37.65234375 13.34375 C39.36925415 13.74883789 39.36925415 13.74883789 41.12084961 14.16210938 C44 15 44 15 47 17 C49.56795782 17.57129206 52.09693901 18.06577657 54.6875 18.5 C63.50177999 20.05087947 63.50177999 20.05087947 67.75 21.1875 C71.08842445 22.16169042 71.08842445 22.16169042 75 22 C75.1388039 24.90737909 75.11437692 26.36596052 74 29 C70.89309099 32.00242188 67.31245414 34.23157321 63.6875 36.5625 C61.59073186 37.96292205 59.49438601 39.36397655 57.3984375 40.765625 C56.33334961 41.46751953 55.26826172 42.16941406 54.17089844 42.89257812 C49.32436597 46.11364898 44.56936128 49.46106492 39.8125 52.8125 C38.98258545 53.39265869 38.1526709 53.97281738 37.29760742 54.57055664 C33.06662343 57.50242542 33.06662343 57.50242542 28.99365234 60.64477539 C25.87196522 62.76680395 22.46887526 62.53399688 18.8125 62.625 C14.02312237 62.35868198 14.02312237 62.35868198 10 64 C9.90013025 66.84335048 9.86122119 69.65697163 9.875 72.5 C9.87113281 73.29792969 9.86726563 74.09585938 9.86328125 74.91796875 C9.4910039 78.7683932 9.4910039 78.7683932 11 82 C13.84335048 82.09986975 16.65697163 82.13877881 19.5 82.125 C20.69689453 82.13080078 20.69689453 82.13080078 21.91796875 82.13671875 C25.7683932 82.5089961 25.7683932 82.5089961 29 81 C28.96519531 79.9171875 28.93039063 78.834375 28.89453125 77.71875 C28.54648143 66.83926004 28.54648143 66.83926004 32.03125 62.4296875 C34.59168615 60.53812933 37.19967108 58.85319734 39.94824219 57.24902344 C43.18983667 55.27567773 46.24631016 53.05099928 49.33520508 50.84887695 C51.93132548 49.00438687 54.55113804 47.1981259 57.17578125 45.39453125 C60.0555912 43.40038711 62.84196123 41.3665373 65.54296875 39.13671875 C73.42406584 32.87379368 79.64483757 31.92672001 89.421875 32 C90.60265625 32 91.7834375 32 93 32 C94.8855253 30.1144747 94.13246689 27.42231169 94.13671875 24.91796875 C94.13285156 24.12003906 94.12898438 23.32210937 94.125 22.5 C94.12886719 21.70207031 94.13273437 20.90414062 94.13671875 20.08203125 C94.5089961 16.2316068 94.5089961 16.2316068 93 13 C90.13732433 12.92674832 87.299281 12.90761795 84.4375 12.9375 C83.63119141 12.94201172 82.82488281 12.94652344 81.99414062 12.95117188 C79.99606244 12.96299482 77.99802217 12.98093086 76 13 C75.34 14.65 74.68 16.3 74 18 C68.37963882 18.25165103 63.68914495 17.3739604 58.28515625 15.8828125 C57.06329872 15.55698685 57.06329872 15.55698685 55.8167572 15.22457886 C53.22973942 14.53285128 50.64613263 13.82925409 48.0625 13.125 C46.3315987 12.65934332 44.60048052 12.19449204 42.86914062 11.73046875 C40.41880138 11.07361028 37.96881707 10.41569437 35.52052307 9.75125122 C33.3484159 9.16211121 31.17474521 8.57932034 29 8 C28.27787323 7.80581482 27.55574646 7.61162964 26.81173706 7.41156006 C22.32409679 6.23873135 18.59750707 5.80843721 14 6 Z " fill="#FCEBFE" transform="translate(26,38)"/>
<path d="M0 0 C0.79792969 0.00386719 1.59585938 0.00773437 2.41796875 0.01171875 C3.61486328 0.00591797 3.61486328 0.00591797 4.8359375 0 C10.79136108 0.01011108 10.79136108 0.01011108 11.91796875 1.13671875 C12.01778089 3.81403255 12.0567675 6.4597605 12.04296875 9.13671875 C12.04876953 10.26207031 12.04876953 10.26207031 12.0546875 11.41015625 C12.04457928 17.01010822 12.04457928 17.01010822 10.91796875 18.13671875 C8.05529308 18.20997043 5.21724975 18.2291008 2.35546875 18.19921875 C1.54916016 18.19470703 0.74285156 18.19019531 -0.08789062 18.18554688 C-2.08596881 18.17372393 -4.08400908 18.15578789 -6.08203125 18.13671875 C-6.41203125 17.14671875 -6.74203125 16.15671875 -7.08203125 15.13671875 C-7.74589844 15.35328125 -8.40976563 15.56984375 -9.09375 15.79296875 C-9.97675781 16.07140625 -10.85976563 16.34984375 -11.76953125 16.63671875 C-12.63964844 16.91515625 -13.50976562 17.19359375 -14.40625 17.48046875 C-17.07594802 18.1352268 -19.34599809 18.2550337 -22.08203125 18.13671875 C-21.58703125 16.65171875 -21.58703125 16.65171875 -21.08203125 15.13671875 C-18.140625 13.75 -18.140625 13.75 -14.51953125 12.44921875 C-13.32199219 12.01222656 -12.12445313 11.57523438 -10.890625 11.125 C-9.96378906 10.79886719 -9.03695312 10.47273437 -8.08203125 10.13671875 C-8.02144531 9.49863281 -7.96085937 8.86054688 -7.8984375 8.203125 C-7.81464844 7.37683594 -7.73085937 6.55054688 -7.64453125 5.69921875 C-7.56332031 4.87550781 -7.48210937 4.05179687 -7.3984375 3.203125 C-6.73195338 -1.14959229 -3.80805447 0.00646529 0 0 Z M-2.08203125 5.13671875 C-2.2425694 7.00993823 -2.2425694 7.00993823 -2.20703125 9.13671875 C-2.20960937 9.85859375 -2.2121875 10.58046875 -2.21484375 11.32421875 C-2.27898401 13.1576129 -2.27898401 13.1576129 -1.08203125 14.13671875 C2.41796875 14.30338542 2.41796875 14.30338542 5.91796875 14.13671875 C7.11492151 13.1576129 7.11492151 13.1576129 7.05078125 11.32421875 C7.04820313 10.60234375 7.045625 9.88046875 7.04296875 9.13671875 C7.04554687 8.41484375 7.048125 7.69296875 7.05078125 6.94921875 C7.11492151 5.1158246 7.11492151 5.1158246 5.91796875 4.13671875 C1.60171625 3.59405762 1.60171625 3.59405762 -2.08203125 5.13671875 Z " fill="#C096FE" transform="translate(73.08203125,0.86328125)"/>
<path d="M0 0 C-1 3 -1 3 -3.01953125 4.1796875 C-5.39874609 5.9855651 -5.39874609 5.9855651 -5.57421875 9.7578125 C-5.63120367 11.21291592 -5.66830722 12.66890766 -5.6875 14.125 C-5.91092211 21.91092211 -5.91092211 21.91092211 -7 23 C-9.84335048 23.09986975 -12.65697163 23.13877881 -15.5 23.125 C-16.29792969 23.12886719 -17.09585938 23.13273437 -17.91796875 23.13671875 C-23.87339233 23.12660767 -23.87339233 23.12660767 -25 22 C-25.09986975 19.15664952 -25.13877881 16.34302837 -25.125 13.5 C-25.12886719 12.70207031 -25.13273437 11.90414062 -25.13671875 11.08203125 C-25.12660767 5.12660767 -25.12660767 5.12660767 -24 4 C-20.72123908 3.79578652 -17.44981204 3.6539761 -14.16601562 3.5703125 C-9.02339867 3.34238488 -4.69276045 0 0 0 Z M-20 10 C-20.16666667 13.5 -20.16666667 13.5 -20 17 C-18.82281015 18.40432936 -18.82281015 18.40432936 -15.5 18.125 C-12.17718985 18.40432936 -12.17718985 18.40432936 -11 17 C-10.83333333 13.5 -10.83333333 13.5 -11 10 C-12.17718985 8.59567064 -12.17718985 8.59567064 -15.5 8.875 C-18.82281015 8.59567064 -18.82281015 8.59567064 -20 10 Z " fill="#B689FE" transform="translate(61,97)"/>
<path d="M0 0 C7.72219821 0.6876515 15.07285603 2.66508034 22.5625 4.59765625 C23.96343314 4.95537625 25.36447672 5.31266401 26.765625 5.66954041 C30.42943512 6.60394621 34.09172804 7.54416667 37.75372314 8.48565674 C41.50027148 9.44776929 45.24824279 10.40430497 48.99609375 11.36132812 C56.33212336 13.23546796 63.66655719 15.11576047 71 17 C71 17.66 71 18.32 71 19 C63.17812756 18.34486855 55.79624323 16.19873433 48.25 14.125 C37.31539678 11.14344467 37.31539678 11.14344467 26.359375 8.2421875 C25.44124023 8.00097168 24.52310547 7.75975586 23.57714844 7.51123047 C20.98159109 6.99634821 18.63859059 6.90538207 16 7 C16.83249268 7.19634033 17.66498535 7.39268066 18.52270508 7.5949707 C21.6166312 8.33005627 24.70804689 9.07472425 27.7980957 9.82592773 C29.1347366 10.14878864 30.47230422 10.46783815 31.81079102 10.78295898 C33.73694573 11.23713954 35.65955318 11.70628146 37.58203125 12.17578125 C38.73936768 12.45333252 39.8967041 12.73088379 41.08911133 13.0168457 C43.9204027 13.97311597 45.17193588 14.69430793 47 17 C36.95215952 15.42095347 27.15989185 12.87543188 17.3125 10.375 C15.62833865 9.95018988 13.94409444 9.52570816 12.25976562 9.1015625 C8.17221233 8.07148993 4.08580442 7.03698679 0 6 C0 5.67 0 5.34 0 5 C3.96 5 7.92 5 12 5 C9.586875 4.319375 9.586875 4.319375 7.125 3.625 C2.25 2.25 2.25 2.25 0 0 Z " fill="#F0D5FE" transform="translate(26,38)"/>
<path d="M0 0 C0.33 0 0.66 0 1 0 C1 3.3 1 6.6 1 10 C7.93 10.495 7.93 10.495 15 11 C15 7.37 15 3.74 15 0 C16.65 0 18.3 0 20 0 C19.01 2.31 18.02 4.62 17 7 C18.27875 7.268125 19.5575 7.53625 20.875 7.8125 C31.36238532 10.15967671 31.36238532 10.15967671 36 12 C36.495 12.99 36.495 12.99 37 14 C34.95809019 13.85761163 32.91647955 13.71092972 30.875 13.5625 C29.73804687 13.48128906 28.60109375 13.40007813 27.4296875 13.31640625 C24.2459522 13.02269035 21.14489093 12.56875687 18 12 C17.01 13.485 17.01 13.485 16 15 C13.2114711 15.22107787 10.65346819 15.28107535 7.875 15.1875 C7.12089844 15.17396484 6.36679688 15.16042969 5.58984375 15.14648438 C3.72625873 15.11109985 1.86304022 15.05729167 0 15 C0 10.05 0 5.1 0 0 Z " fill="#A271FE" transform="translate(2,30)"/>
<path d="M0 0 C6.57948979 -0.30745279 12.16179597 0.79568642 18.5 2.5 C19.4178125 2.73847656 20.335625 2.97695313 21.28125 3.22265625 C23.52324531 3.80650919 25.76253068 4.39907967 28 5 C28.5 8.109375 28.5 8.109375 28 12 C25.70104641 14.60359634 22.89711102 16.36324326 20 18.25 C19.18563477 18.80792236 18.37126953 19.36584473 17.53222656 19.94067383 C15.84932128 21.09052849 14.15943993 22.23023663 12.46289062 23.35986328 C9.5249506 25.31635427 6.62158977 27.31987239 3.71875 29.32788086 C1.77030941 30.67347432 -0.1846582 32.009128 -2.140625 33.34375 C-8.16076403 37.46763728 -14.07926762 41.73522246 -20 46 C-20 45.01 -20 44.02 -20 43 C-18.20605469 41.4128418 -18.20605469 41.4128418 -15.671875 39.69921875 C-14.73569336 39.05807129 -13.79951172 38.41692383 -12.83496094 37.75634766 C-11.81692383 37.07362793 -10.79888672 36.3909082 -9.75 35.6875 C-7.64553446 34.25174006 -5.54137383 32.81553311 -3.4375 31.37890625 C-1.83068359 30.28860107 -1.83068359 30.28860107 -0.19140625 29.17626953 C4.65464994 25.87166848 9.45235511 22.49931978 14.25 19.125 C15.8798471 17.9812559 17.51002632 16.83798484 19.140625 15.6953125 C19.81641602 15.22109863 20.49220703 14.74688477 21.18847656 14.25830078 C22.77933706 13.1532745 24.38832906 12.07444729 26 11 C26 10.01 26 9.02 26 8 C23.167031 7.20701081 20.33364215 6.41557728 17.5 5.625 C16.70851562 5.40328125 15.91703125 5.1815625 15.1015625 4.953125 C10.08542885 3.55518611 5.05726524 2.24111785 0 1 C0 0.67 0 0.34 0 0 Z " fill="#F2D7FE" transform="translate(73,55)"/>
<path d="M0 0 C5.03539273 -0.16603296 9.31538425 0.36635964 14.19140625 1.609375 C14.85857162 1.77745667 15.525737 1.94553833 16.21311951 2.11871338 C18.33162947 2.65476043 20.44695205 3.2023951 22.5625 3.75 C23.95359588 4.10227472 25.34487101 4.45384235 26.73632812 4.8046875 C35.5400546 7.03811557 44.28159308 9.45395447 53 12 C48.82058106 14.41069391 45.74989151 13.76879074 41.1875 12.8125 C40.50107422 12.68552734 39.81464844 12.55855469 39.10742188 12.42773438 C35.13697561 11.64266033 31.74027326 10.48201423 28.04272461 8.79614258 C22.38954688 6.5928424 16.26166629 5.53829013 10.36523438 4.16210938 C9.32044922 3.91138672 8.27566406 3.66066406 7.19921875 3.40234375 C5.77355591 3.06964478 5.77355591 3.06964478 4.3190918 2.73022461 C2 2 2 2 0 0 Z " fill="#9D6DFE" transform="translate(40,44)"/>
<path d="M0 0 C0 0.66 0 1.32 0 2 C-1.69311523 3.41699219 -1.69311523 3.41699219 -4.05859375 5.046875 C-4.92033203 5.645 -5.78207031 6.243125 -6.66992188 6.859375 C-7.58322266 7.48328125 -8.49652344 8.1071875 -9.4375 8.75 C-10.75524414 9.66265625 -10.75524414 9.66265625 -12.09960938 10.59375 C-13.86208255 11.81122225 -15.62951701 13.02154381 -17.40185547 14.22460938 C-19.11252833 15.39356381 -20.81005383 16.5820328 -22.49267578 17.79101562 C-23.26981934 18.33951172 -24.04696289 18.88800781 -24.84765625 19.453125 C-25.52965088 19.94458008 -26.21164551 20.43603516 -26.91430664 20.94238281 C-29.42669893 22.21637127 -31.21997435 22.19751299 -34 22 C-30.54386024 18.21597006 -26.6007053 15.52420946 -22.375 12.6875 C-20.93967311 11.71678289 -19.50477687 10.74542873 -18.0703125 9.7734375 C-17.37454102 9.30260742 -16.67876953 8.83177734 -15.96191406 8.34667969 C-12.58646773 6.02973569 -9.29616998 3.59346955 -6.015625 1.14453125 C-4 0 -4 0 0 0 Z " fill="#A675FE" transform="translate(91,76)"/>
<path d="M0 0 C1.65 0.33 3.3 0.66 5 1 C4.67 1.66 4.34 2.32 4 3 C4.83249268 3.19634033 5.66498535 3.39268066 6.52270508 3.5949707 C9.6166312 4.33005627 12.70804689 5.07472425 15.7980957 5.82592773 C17.1347366 6.14878864 18.47230422 6.46783815 19.81079102 6.78295898 C21.73694573 7.23713954 23.65955318 7.70628146 25.58203125 8.17578125 C26.73936768 8.45333252 27.8967041 8.73088379 29.08911133 9.0168457 C31.9204027 9.97311597 33.17193588 10.69430793 35 13 C24.95215952 11.42095347 15.15989185 8.87543188 5.3125 6.375 C3.62833865 5.95018988 1.94409444 5.52570816 0.25976562 5.1015625 C-3.82778767 4.07148993 -7.91419558 3.03698679 -12 2 C-12 1.67 -12 1.34 -12 1 C-8.04 1 -4.08 1 0 1 C0 0.67 0 0.34 0 0 Z " fill="#E4C6FE" transform="translate(38,42)"/>
<path d="M0 0 C0.99 0 1.98 0 3 0 C3 5.28 3 10.56 3 16 C-1.95 16 -6.9 16 -12 16 C-12 15.67 -12 15.34 -12 15 C-6.06 14.505 -6.06 14.505 0 14 C0 9.38 0 4.76 0 0 Z " fill="#A170FE" transform="translate(82,2)"/>
<path d="M0 0 C0.33 0.66 0.66 1.32 1 2 C-0.32 2.33 -1.64 2.66 -3 3 C-3 3.66 -3 4.32 -3 5 C-5.43313372 6.03251062 -7.87056892 7.05119521 -10.3125 8.0625 C-11.00279297 8.35705078 -11.69308594 8.65160156 -12.40429688 8.95507812 C-17.66015625 11.11328125 -17.66015625 11.11328125 -21 10 C-16.71 8.02 -12.42 6.04 -8 4 C-8.66 3.34 -9.32 2.68 -10 2 C-8.71211992 1.46987262 -7.41953322 0.9511671 -6.125 0.4375 C-5.40570313 0.14746094 -4.68640625 -0.14257812 -3.9453125 -0.44140625 C-2 -1 -2 -1 0 0 Z " fill="#D2AFFE" transform="translate(52,18)"/>
<path d="M0 0 C-2.22083322 3.33124983 -3.2002094 3.77399498 -6.8125 5.1875 C-7.66457031 5.53167969 -8.51664063 5.87585938 -9.39453125 6.23046875 C-12.07043861 7.02080421 -14.22694459 7.14437811 -17 7 C-16 4 -16 4 -13.671875 2.83203125 C-12.70765625 2.49558594 -11.7434375 2.15914062 -10.75 1.8125 C-9.79609375 1.46832031 -8.8421875 1.12414062 -7.859375 0.76953125 C-5.08905165 0.02396609 -2.85063531 -0.15085479 0 0 Z " fill="#A776FE" transform="translate(45,21)"/>
<path d="M0 0 C8.57142857 0.85714286 8.57142857 0.85714286 12 3 C11.34 3.66 10.68 4.32 10 5 C6.17226914 4.57469657 2.6243277 3.26430036 -1 2 C-0.67 1.34 -0.34 0.68 0 0 Z " fill="#AA79FE" transform="translate(67,50)"/>
<path d="M0 0 C0.928125 0.20625 1.85625 0.4125 2.8125 0.625 C2.4825 1.285 2.1525 1.945 1.8125 2.625 C2.8025 3.285 3.7925 3.945 4.8125 4.625 C1.1825 4.295 -2.4475 3.965 -6.1875 3.625 C-6.1875 2.965 -6.1875 2.305 -6.1875 1.625 C-3.1875 -0.375 -3.1875 -0.375 0 0 Z " fill="#B888FE" transform="translate(25.1875,38.375)"/>
<path d="M0 0 C-3.32307692 3.93846154 -3.32307692 3.93846154 -6.75 4.25 C-7.4925 4.1675 -8.235 4.085 -9 4 C-8.67 3.01 -8.34 2.02 -8 1 C-5.07175348 0.02391783 -3.04386724 -0.08226668 0 0 Z " fill="#A574FE" transform="translate(60,15)"/>
<path d="M0 0 C1.65 0 3.3 0 5 0 C4.54625 0.5775 4.0925 1.155 3.625 1.75 C2.15886484 3.7800333 1.05142216 5.73539843 0 8 C0 5.36 0 2.72 0 0 Z " fill="#9766FE" transform="translate(17,30)"/>
</svg>
