<svg xmlns="http://www.w3.org/2000/svg" viewBox="240.94117647058823 501.2 1602.5389876880986 400.4" version="1.1" style="max-height: 500px" width="1602.5389876880986" height="400.4">
<path fill="#010000" d="m0 0h51l1 1v51l-1 1h-50l-1-1v-11l-19 8-26 10-42 16-29 12-1 1v5l9 3 54 14 28 7 17 5 25 6 67 17 8 3v-17h52v50l-1 1-46 1-15 11-12 8-15 11-18 13-13 9-17 12-13 9-16 11h-2v44l-1 1h-51l-1-1v-51l42-1 16-11 18-13 15-10 17-12 15-11 17-12 16-11 12-8 1-11-13-2-48-12-74-19-21-5-37-10-14-3-1 8h-52v-52h51l1 1v7l27-11 39-15 37-15 12-5h2zm15 12-2 1v26l1 1h24l1-4v-23l-1-1zm-171 66v26h26v-26zm260 65v26l1 1h24l1-1v-26zm-169 130v26h26v-25l-1-1z" transform="translate(501,535)"/>
<path fill="#010000" d="m0 0 17 1 10 3 9 6 7 9 2 4 2 1 2-6 5-7 10-7 9-3 9-1h11l12 2 10 5 6 5 6 10 4 10 2 14v74l-1 1h-24l-1-78-3-10-6-8-10-4h-15l-12 6-6 8-4 10-1 75-1 1h-24l-1-77-3-10-5-8-7-4-4-1h-15l-12 6-6 8-3 9-1 5-1 72h-25l-1-118 1-1h25v14l-1 3 10-10 9-6 6-2z" transform="translate(1029,658)"/>
<path fill="#010000" d="m0 0h28l13 4 10 6 6 5 7 10 6 15 2 12 1 18-94 1 2 9 7 12 11 7 11 3h8l10-2 10-6 5-5 1-2 4 1 7 7 7 6-1 4-5 5-8 6-11 4-17 3h-13l-14-3-12-5-11-8-6-7-6-10-4-13-2-11v-11l5-21 6-11 11-12 14-8zm7 19-10 3-10 7-7 11-1 9h67l-2-10-4-8-8-7-11-4-5-1z" transform="translate(875,659)"/>
<path fill="#010000" d="m0 0h13l13 2 13 7 8 8 5 10 1 6v87l-1 1h-23l-1-5 1-6-15 10-12 3h-17l-12-3-8-4-9-8-6-12-1-5v-12l4-13 6-8 11-8 17-4h41l-2-16-4-5-10-4h-13l-10 4-7 5-4 5-5-2-9-9-4-3 2-4 9-7 16-8zm-9 66-7 2-8 7-2 7 1 10 5 7 8 4 13 1 12-2 8-4 6-7 1-3v-22z" transform="translate(1235,658)"/>
<path fill="#010000" d="m0 0h10l14 2 10 5 9 8 6 12 3 13 1 7v74h-25l-1-67-2-16-5-10-7-5-6-2h-15l-10 4-6 5-5 8-2 8-1 75h-26l-1-108v-10l1-1h26v9l-1 7h2l2-4 8-7 9-5z" transform="translate(1376,658)"/>
<path fill="#010000" d="m0 0h28l4 5 10 16 7 10 4 7v2l3-3 11-16 14-21h28l-2 5-8 11-12 17-10 14-8 12 5 9 11 15 13 19 11 16v1h-28l-8-11-18-27v-2h-2l-2 6-11 17-10 15-2 2h-28l4-7 14-19 12-18 9-12 1-5-12-17-13-18-15-22z" transform="translate(1606,660)"/>
<path fill="#010000" d="m0 0h25l10 3 15 8 4 4-1 4-5 6-5 5-2 3-4-2-8-6-11-4-8-1-10 3-6 5-2 5 1 5 5 5 9 4 22 5 16 7 6 5 5 8 2 6 1 10-2 10-6 10-10 8-10 4-15 3h-8l-15-3-12-5-10-8-1-3 7-8 6-7h3l4 5 12 6 5 1h11l10-3 7-6 1-2v-7l-3-5-4-3-16-4-21-6-10-6-7-8-4-10v-13l3-9 4-6 9-8 9-4z" transform="translate(749,659)"/>
<path fill="#010000" d="m0 0 24 1v37h31v20l-30 1v62l3 9 7 6 5 2h15v16l-4 4-7 2-13-1-10-3-9-6-6-7-6-12-1-5v-68l-14 1-1-1v-20h15v-37z" transform="translate(1470,622)"/>
<path fill="#010000" d="m0 0h25v119h-25z" transform="translate(1557,660)"/>
<path fill="#010000" d="m0 0 9 1 6 5 2 4-1 9-5 6-4 2h-9l-7-6-2-4v-8l6-7z" transform="translate(1567,603)"/>
</svg>